# xmcd CD database file
#
# Track frame offsets:
#	182
#	9855
#	21515
#	32215
#	41485
#	53462
#	65002
#	76307
#	85905
#	95470
#	107055
#	116930
#	128057
#	139035
#	149047
#	160627
#	171277
#	182520
#	193557
#	206445
#	217902
#	230155
#	242087
#	254365
#	265690
#	278825
#	291302
#	305440
#	318222
#	328785
#
# Disc length: 4532 seconds
#
# Revision: 1
# Processed by: cddbd v1.5.1PL0 Copyright (c) Steve Scherf et al.
# Submitted via: CDex 1.51
#
DISCID=b011b21e
DTITLE=Pee Wee King - Hillbilly Boogie
DYEAR=1900
DGENRE=Country
TTITLE0=Catty Town
TTITLE1=Plantation Boogie
TTITLE2=I Don't Mind
TTITLE3=Blue Suede Shoes
TTITLE4=Steel Guitar Rag
TTITLE5=Railroad Boogie
TTITLE6=Rootie Tootie
TTITLE7=Half A Dozen Boogie
TTITLE8=Ballroom Baby
TTITLE9=Ten Gallon Boogie
TTITLE10=Hoot Scoot
TTITLE11=Chew Tobacco Rag
TTITLE12=Forty Nine Women
TTITLE13=Indian Giver
TTITLE14=Bull Fiddle Boogie
TTITLE15=Tweedlee Dee
TTITLE16=You Can't Hardly Get Them No More
TTITLE17=Beauty Is As Beauty Does
TTITLE18=Rag Mop
TTITLE19=Birmingham Bounce
TTITLE20=Say Good Morning, Nellie
TTITLE21=Going Back To A.L.A.
TTITLE22=Tennessee Central Number Nine
TTITLE23=Texas Toni Lee
TTITLE24=Keep Them Icy Cold Fingers Off Of Me
TTITLE25=Quit Honkin' That Horn
TTITLE26=New York To New Orleans
TTITLE27=I Hear You Knocking
TTITLE28=Oh Monah
TTITLE29=Mop Rag Boogie
EXTD=
EXTT0=
EXTT1=
EXTT2=
EXTT3=
EXTT4=
EXTT5=
EXTT6=
EXTT7=
EXTT8=
EXTT9=
EXTT10=
EXTT11=
EXTT12=
EXTT13=
EXTT14=
EXTT15=
EXTT16=
EXTT17=
EXTT18=
EXTT19=
EXTT20=
EXTT21=
EXTT22=
EXTT23=
EXTT24=
EXTT25=
EXTT26=
EXTT27=
EXTT28=
EXTT29=
PLAYORDER=
